PathFileType	4	(X/Y/Z)	s01c0401.trc
DataRate	CameraRate	NumFrames	NumMarkers	Units	OrigDataRate	OrigDataStartFrame	OrigNumFrames
200	200	6	48	mm	200	1500	2000
Frame#	Time	racr			lacr			c7			jug			rlel			rdr			llel			ldr			s2			lic			ric			lasi			rasi			rpsi			lpsi			rgt			lgt			rth1			rth2			rth3			rth4			rlfc			rsh1			rsh2			rsh3			rsh4			rlmal			rmmal			rcal			rtoe			rmt5			lth1			lth2			lth4			lth3			llfc			lsh1			lsh2			lsh3			lsh4			llmal			lmmal			lcal			ltoe			lmt5			SBIKE			LBIKE			RBIKE			
		X1	Y1	Z1	X2	Y2	Z2	X3	Y3	Z3	X4	Y4	Z4	X5	Y5	Z5	X6	Y6	Z6	X7	Y7	Z7	X8	Y8	Z8	X9	Y9	Z9	X10	Y10	Z10	X11	Y11	Z11	X12	Y12	Z12	X13	Y13	Z13	X14	Y14	Z14	X15	Y15	Z15	X16	Y16	Z16	X17	Y17	Z17	X18	Y18	Z18	X19	Y19	Z19	X20	Y20	Z20	X21	Y21	Z21	X22	Y22	Z22	X23	Y23	Z23	X24	Y24	Z24	X25	Y25	Z25	X26	Y26	Z26	X27	Y27	Z27	X28	Y28	Z28	X29	Y29	Z29	X30	Y30	Z30	X31	Y31	Z31	X32	Y32	Z32	X33	Y33	Z33	X34	Y34	Z34	X35	Y35	Z35	X36	Y36	Z36	X37	Y37	Z37	X38	Y38	Z38	X39	Y39	Z39	X40	Y40	Z40	X41	Y41	Z41	X42	Y42	Z42	X43	Y43	Z43	X44	Y44	Z44	X45	Y45	Z45	X46	Y46	Z46	X47	Y47	Z47	X48	Y48	Z48	
1500	7.5000	720.336238	1274.365983	-87.833891	722.800619	1224.692365	-464.333155	741.909999	1361.944316	-276.721701	699.180963	1197.347351	-266.290533	558.712663	1062.121789	38.552211	701.728503	889.105191	-49.433529	525.374940	1033.925838	-581.416370	676.815106	886.779762	-468.443825	189.032353	1234.071378	-248.903549	341.522826	1225.576401	-434.393233	352.596082	1218.757382	-104.843808	369.266527	1178.314323	-442.366287	369.734365	1171.374944	-138.817391	225.897470	1271.487040	-199.636354	221.043220	1273.269868	-304.515010	300.377870	1109.087321	-69.913916	268.098611	1087.513970	-445.546152	391.536681	1012.425063	-69.383390	448.977010	952.742495	-79.916282	505.049411	883.748007	-96.757788	484.906810	987.561244	-105.189391	528.905700	778.844709	-123.097826	425.775322	725.007949	-82.800877	354.315739	679.623982	-82.998612	274.498607	640.173020	-87.331295	375.832086	640.410633	-122.673102	159.044357	594.416099	-98.316884	189.989492	567.834838	-177.695826	116.482238	615.028239	-151.813606	216.217748	361.348547	-144.989155	148.173637	442.370951	-73.015191	296.534057	957.819865	-453.309504	346.248863	886.665513	-443.926266	392.040892	916.057098	-441.671377	387.114341	813.410198	-426.077911	427.483529	709.677031	-408.900580	368.894067	609.790405	-448.643346	345.147013	525.506697	-443.988025	318.108921	445.413920	-434.438244	397.122589	512.883067	-413.211040	272.978974	325.820947	-421.115005	308.832795	342.120782	-342.265307	221.865216	310.978709	-382.618293	471.718424	189.271939	-380.060410	367.208881	205.335519	-450.059612	-275.829508	875.523843	-269.076247	-21.375861	80.331878	-454.006536	-21.356491	80.666235	-54.052125	
1501	7.5050	719.286461	1275.484950	-85.637631	723.654132	1224.542860	-462.196042	741.558365	1362.294392	-274.385232	699.501649	1197.748712	-264.253286	557.781844	1061.806742	38.731793	701.633892	889.147868	-49.650944	525.793223	1034.581469	-580.719729	676.922852	886.691371	-468.493046	188.979398	1232.931244	-250.325668	341.598944	1224.374115	-435.147156	351.756821	1219.263414	-105.015985	368.142917	1176.183467	-441.613729	369.662359	1171.620106	-138.949068	225.577557	1270.578655	-201.188653	221.184060	1271.748195	-306.068015	300.930401	1110.275875	-69.905200	266.293578	1085.393988	-445.544749	394.539077	1015.517085	-69.029943	452.723754	957.096949	-78.744311	510.533869	889.493702	-95.831373	488.870151	992.483636	-104.789505	536.482956	784.908905	-122.805225	433.332031	731.918332	-82.686566	361.600475	687.016405	-83.098007	281.285579	648.283608	-87.544208	382.835629	647.545215	-122.584270	165.836710	602.314498	-98.649453	196.990805	575.798929	-178.108382	122.705242	622.642925	-152.374296	224.477953	369.848721	-145.253428	156.402755	450.892677	-73.179658	291.767933	955.597909	-453.490903	339.314029	883.078370	-444.040793	385.963675	911.095915	-442.280101	378.042128	808.708017	-426.375552	417.471778	703.410465	-409.211235	360.131575	603.803679	-449.077744	337.308365	519.408130	-444.165364	310.828148	439.020074	-434.631678	389.424631	507.279168	-413.705397	266.768148	319.154984	-420.712412	303.844951	337.746690	-342.023346	216.304610	305.589067	-382.456899	464.355317	179.970487	-379.834663	360.095830	197.825005	-450.057946	-275.855221	875.514560	-269.117938	-21.376718	80.325533	-454.002920	-21.354636	80.670358	-54.035552	
1502	7.5100	718.228403	1276.419585	-83.250529	724.554131	1224.385236	-459.942758	741.193260	1362.606877	-271.979770	699.752612	1198.036620	-261.989080	556.714581	1061.565393	39.030997	701.457528	889.109723	-49.965305	526.303259	1035.430139	-580.045398	677.050990	886.673047	-468.439804	189.004871	1231.740321	-251.776039	341.953270	1223.095422	-435.695000	350.866754	1219.738237	-105.251894	366.162046	1173.751425	-439.702845	369.607318	1171.863525	-139.016307	225.342098	1269.686343	-202.731661	221.385329	1270.251501	-307.667126	301.433455	1111.557420	-69.831141	264.487181	1083.460340	-445.496048	396.813897	1018.199502	-68.505310	456.569913	961.378872	-77.793606	515.903677	894.974979	-94.797035	491.745609	997.529911	-104.159214	543.998359	791.142079	-122.214898	440.940498	738.623687	-83.120591	368.868694	694.244864	-83.234331	288.409526	655.878177	-87.883203	389.999784	654.573212	-122.654708	173.107896	609.720379	-99.005359	204.263771	583.229183	-178.455209	128.893009	629.672538	-153.118518	233.299286	377.895135	-145.452180	164.015322	457.958567	-74.000056	287.151350	953.691723	-453.859914	332.535086	879.890054	-444.371553	380.076092	906.560317	-443.033957	369.134554	804.523757	-427.004194	407.524598	697.363420	-409.086602	350.920505	598.478906	-449.734745	328.497151	513.989029	-444.825646	302.862390	433.370508	-434.997384	380.893147	502.245497	-414.243333	260.149285	312.993365	-420.466013	298.575683	333.859761	-341.725552	210.269311	300.656413	-382.389208	456.378372	171.388936	-379.613398	352.442881	190.674451	-449.907038	-275.888309	875.517934	-269.088648	-21.380645	80.316920	-454.002762	-21.359152	80.669574	-54.030182	
1503	7.5150	717.073308	1277.349188	-80.688701	725.490174	1224.177217	-457.564222	740.782475	1362.804853	-269.547719	700.044253	1198.475581	-259.637001	555.774632	1061.262760	39.370531	701.311249	889.078672	-50.209675	527.006781	1036.197790	-579.421738	677.168975	886.667226	-468.387654	189.101286	1230.670864	-253.294077	342.534957	1221.688726	-436.018491	350.090774	1220.208470	-105.386665	363.550347	1171.096471	-436.904149	369.547220	1172.097497	-139.047703	225.154681	1268.852107	-204.305398	221.640708	1268.773560	-309.285081	301.800157	1112.834601	-69.821993	262.801678	1081.664484	-445.409268	398.754258	1020.667460	-67.609285	459.871879	965.337503	-76.568041	521.034414	900.284973	-93.429718	493.294210	1002.123723	-102.558818	550.505277	798.163413	-120.658865	448.565914	745.175619	-83.073685	376.273381	701.081134	-83.340678	295.729869	662.992996	-88.251199	397.394139	661.276124	-122.603322	180.529717	616.659621	-99.500935	212.010549	590.210357	-179.019028	135.896862	636.309763	-153.376349	242.539577	385.463828	-145.784110	172.656074	464.970454	-74.442787	282.681336	952.079930	-454.336001	326.131838	877.114686	-445.046099	374.386496	902.493929	-443.866261	360.580044	800.725107	-427.900634	397.018802	691.945522	-410.555818	341.311970	593.772036	-450.605767	319.286063	509.397415	-445.632628	294.255133	428.420561	-435.523566	371.906800	497.878638	-415.290448	253.145212	307.372436	-420.348401	293.048606	330.452991	-341.376843	203.779932	296.194470	-382.416441	447.985897	163.277417	-379.545882	344.339550	184.012506	-449.777451	-275.952864	875.505418	-269.116409	-21.387112	80.316022	-454.000788	-21.367894	80.666504	-54.050120	
1504	7.5200	715.834063	1278.093319	-78.008979	726.437140	1223.981795	-455.100798	740.492080	1362.983826	-267.056353	700.314198	1198.670039	-257.134028	554.832233	1060.867515	39.769338	701.137016	889.016014	-50.309445	527.914530	1037.161252	-578.933677	677.339187	886.681081	-468.278216	189.226658	1229.587422	-254.683088	343.323167	1220.117600	-436.150723	349.232865	1220.474774	-105.597822	360.534190	1168.297247	-433.488189	369.480489	1172.273627	-139.049660	224.997432	1267.839668	-205.945388	221.933024	1267.319767	-310.878133	301.882981	1114.152155	-70.500354	261.154002	1080.116305	-445.322798	400.364115	1022.919920	-66.512979	462.840197	969.143438	-75.395582	525.659421	905.671142	-91.952622	496.334456	1006.912239	-101.279719	557.799663	804.643308	-119.813567	456.029861	751.627689	-82.815779	383.763429	707.472682	-83.346627	303.080552	669.595932	-88.610228	404.878172	667.851863	-122.706564	188.141144	622.973809	-100.057194	219.948172	596.763996	-179.587832	142.770477	642.198688	-153.908774	252.000188	392.560539	-146.259308	181.584825	471.381141	-74.933767	278.375784	950.733226	-454.878921	319.848370	874.636547	-446.022768	368.813016	898.752090	-444.859888	352.413013	797.290581	-429.434294	386.085486	687.107339	-412.865875	331.349330	589.606843	-451.696616	309.471378	505.386836	-446.633271	285.119608	424.078193	-436.189316	362.511888	493.943121	-416.856590	245.820619	302.304619	-420.362831	287.287302	327.519320	-340.982039	196.872290	292.215228	-382.501201	439.162599	155.840489	-379.433925	335.807653	177.881567	-449.678746	-275.903016	875.474526	-269.117412	-21.391699	80.315954	-454.001638	-21.366566	80.669591	-54.041120	
1505	7.5250	714.597748	1278.749656	-75.263829	727.352545	1223.804406	-452.572838	740.180693	1363.084268	-264.487445	700.597919	1198.811661	-254.710922	553.976568	1060.414245	40.259154	700.978558	888.968271	-50.269949	528.835923	1038.037275	-578.340418	677.527138	886.699504	-468.108320	189.371758	1228.509972	-256.002568	344.308848	1218.372027	-436.092334	348.556515	1220.690174	-105.644924	357.340068	1165.432392	-429.725483	369.394608	1172.396577	-139.060520	224.862996	1267.003626	-207.434174	222.261968	1265.904401	-312.419235	301.902524	1115.325542	-70.426651	259.628773	1078.765223	-445.282695	401.734941	1024.994879	-65.294815	465.380244	972.879785	-74.203564	529.864411	911.003270	-90.587812	497.815697	1011.389919	-99.882453	565.684759	810.723550	-119.501190	463.367949	757.868270	-82.421357	391.221312	713.715281	-83.314239	310.529922	675.831390	-88.953916	412.514424	673.958150	-122.423394	195.857366	628.851966	-100.674491	228.057725	602.880667	-180.124392	149.738715	647.514357	-154.552136	263.153380	399.927773	-145.669359	190.824723	477.284834	-75.305759	274.217561	949.604599	-455.456366	313.840137	872.424957	-447.238029	363.582714	895.338877	-446.132382	344.661528	793.947944	-430.007186	375.562895	682.866034	-414.928004	321.078775	585.898512	-452.909081	299.446160	501.737263	-447.776020	275.621470	420.207945	-436.925439	352.886070	490.426473	-418.711667	238.135603	297.891345	-420.558374	281.315386	325.051684	-340.546025	189.583070	288.742630	-382.641717	429.971415	149.044042	-379.303896	326.896670	172.276278	-449.590169	-275.995794	875.476982	-269.061020	-21.395614	80.316682	-454.007211	-21.386240	80.673490	-54.042803	
